<svg width="34" height="31" viewBox="0 0 34 31" fill="none" xmlns="http://www.w3.org/2000/svg">
<path d="M22.2502 15.1014C22.2502 16.353 21.6971 17.5533 20.7125 18.4383C19.7279 19.3234 18.3926 19.8206 17.0002 19.8206C15.6078 19.8206 14.2725 19.3234 13.2879 18.4383C12.3033 17.5533 11.7502 16.353 11.7502 15.1014C11.7502 14.8324 11.7817 14.5697 11.8359 14.3148H10.0002V20.6024C10.0002 21.0397 10.3939 21.3936 10.8804 21.3936H23.1217C23.3549 21.3932 23.5783 21.3097 23.743 21.1613C23.9077 21.013 24.0002 20.812 24.0002 20.6024V14.3148H22.1644C22.2187 14.5697 22.2502 14.8324 22.2502 15.1014ZM17.0002 18.2475C17.4599 18.2474 17.9152 18.1659 18.3399 18.0077C18.7646 17.8494 19.1504 17.6175 19.4754 17.3252C19.8004 17.0329 20.0582 16.686 20.234 16.3041C20.4099 15.9223 20.5003 15.5131 20.5002 15.0998C20.5001 14.6865 20.4094 14.2774 20.2334 13.8956C20.0573 13.5138 19.7994 13.167 19.4742 12.8748C19.149 12.5827 18.763 12.351 18.3382 12.1929C17.9135 12.0349 17.4582 11.9536 16.9984 11.9537C16.07 11.9539 15.1796 12.2856 14.5232 12.8759C13.8668 13.4663 13.4982 14.2668 13.4984 15.1014C13.4987 15.936 13.8677 16.7363 14.5244 17.3263C15.1812 17.9164 16.0717 18.2477 17.0002 18.2475ZM21.2002 11.798H23.2984C23.4378 11.798 23.5716 11.7483 23.6703 11.6598C23.769 11.5714 23.8247 11.4513 23.8252 11.326V9.43993C23.8252 9.31436 23.7697 9.19392 23.6709 9.10513C23.5721 9.01633 23.4382 8.96644 23.2984 8.96644H21.2002C21.0605 8.96644 20.9265 9.01633 20.8277 9.10513C20.7289 9.19392 20.6734 9.31436 20.6734 9.43993V11.326C20.6752 11.5856 20.9114 11.798 21.2002 11.798ZM17.0002 0C12.5446 0 8.27141 1.59103 5.1208 4.42309C1.97019 7.25515 0.200195 11.0962 0.200195 15.1014C0.200195 19.1065 1.97019 22.9476 5.1208 25.7797C8.27141 28.6117 12.5446 30.2028 17.0002 30.2028C19.2064 30.2028 21.391 29.8121 23.4293 29.0532C25.4676 28.2943 27.3196 27.182 28.8796 25.7797C30.4396 24.3774 31.6771 22.7126 32.5214 20.8804C33.3657 19.0482 33.8002 17.0845 33.8002 15.1014C33.8002 13.1182 33.3657 11.1545 32.5214 9.32233C31.6771 7.49015 30.4396 5.82538 28.8796 4.42309C27.3196 3.0208 25.4676 1.90844 23.4293 1.14952C21.391 0.390609 19.2064 0 17.0002 0ZM25.7502 21.219C25.7502 22.1802 24.8752 22.9667 23.8059 22.9667H10.1944C9.1252 22.9667 8.2502 22.1802 8.2502 21.219V8.98375C8.2502 8.02261 9.1252 7.23608 10.1944 7.23608H23.8059C24.8752 7.23608 25.7502 8.02261 25.7502 8.98375V21.219Z" fill="white"/>
</svg>
