<svg width="35" height="31" viewBox="0 0 35 31" fill="none" xmlns="http://www.w3.org/2000/svg">
<path d="M17.3996 0C8.12111 0 0.599609 6.76101 0.599609 15.1014C0.599609 23.4417 8.12111 30.2028 17.3996 30.2028C26.6781 30.2028 34.1996 23.4417 34.1996 15.1014C34.1996 6.76101 26.6781 0 17.3996 0ZM24.2334 12.3705C24.2404 12.4995 24.2421 12.6285 24.2421 12.7544C24.2421 16.687 20.9154 21.219 14.8289 21.219C13.0304 21.2217 11.2693 20.7574 9.75736 19.8819C10.0146 19.9102 10.2789 19.9212 10.5466 19.9212C12.0971 19.9212 13.5234 19.4477 14.6556 18.6486C13.9656 18.6364 13.297 18.4311 12.7431 18.0611C12.1891 17.6912 11.7773 17.1751 11.5651 16.5848C12.0606 16.6695 12.5711 16.6517 13.0579 16.5329C12.3089 16.3967 11.6355 16.032 11.1516 15.5004C10.6677 14.9689 10.4033 14.3032 10.4031 13.6164V13.5802C10.8494 13.802 11.3604 13.9373 11.9029 13.953C11.2008 13.5329 10.7037 12.8876 10.5134 12.149C10.3231 11.4103 10.454 10.6343 10.8791 9.97949C11.7103 10.8982 12.7468 11.6497 13.9216 12.1854C15.0964 12.7211 16.3833 13.0291 17.6989 13.0894C17.5316 12.4513 17.6036 11.7813 17.9036 11.1837C18.2037 10.5861 18.7149 10.0943 19.358 9.78485C20.001 9.47539 20.7398 9.36556 21.4594 9.47245C22.1791 9.57934 22.8393 9.89695 23.3374 10.3759C24.0779 10.2442 24.7881 10 25.4374 9.65387C25.1905 10.3431 24.6738 10.9283 23.9831 11.3009C24.6391 11.2298 25.2796 11.0713 25.8836 10.8305C25.44 11.4281 24.8811 11.9497 24.2334 12.3705Z" fill="white"/>
</svg>
