<svg width="468" height="216" viewBox="0 0 468 216" fill="none" xmlns="http://www.w3.org/2000/svg">
<path d="M56.4984 63.2073C58.3651 63.2073 59.9984 63.474 61.3984 64.0073C62.8651 64.474 64.1318 65.1073 65.1984 65.9073C66.1984 66.7073 66.9651 67.6407 67.4984 68.7073C68.0318 69.774 68.2984 70.9073 68.2984 72.1073C68.2984 73.6407 67.7984 74.9073 66.7984 75.9073C65.7984 76.9073 64.5318 77.4073 62.9984 77.4073C61.5318 77.4073 60.2318 76.9407 59.0984 76.0073C58.0318 75.0073 57.4984 73.674 57.4984 72.0073C57.4984 70.6073 57.8651 69.474 58.5984 68.6073C59.3984 67.7407 60.4318 67.174 61.6984 66.9073C61.4984 66.3073 60.9651 65.8073 60.0984 65.4073C59.2984 64.9407 58.1984 64.7073 56.7984 64.7073C55.2651 64.7073 53.9318 65.0407 52.7984 65.7073C51.7318 66.374 50.8984 67.274 50.2984 68.4073C49.4984 69.8073 48.9984 71.9073 48.7984 74.7073C48.5984 77.4407 48.4984 81.674 48.4984 87.4073V90.0073H59.1984V92.0073H48.4984V131.107C48.4984 134.374 49.4318 136.574 51.2984 137.707C53.2318 138.774 55.8318 139.307 59.0984 139.307V141.407C57.5651 141.341 55.3984 141.274 52.5984 141.207C49.7984 141.074 46.8318 141.007 43.6984 141.007C41.4318 141.007 39.1651 141.074 36.8984 141.207C34.6984 141.274 33.0318 141.341 31.8984 141.407V139.307C34.6318 139.307 36.5651 138.807 37.6984 137.807C38.8984 136.807 39.4984 134.907 39.4984 132.107V92.0073H31.4984V90.0073H39.4984C39.4984 86.074 39.6651 82.774 39.9984 80.1073C40.3318 77.4407 40.8651 75.174 41.5984 73.3073C42.3318 71.374 43.3318 69.674 44.5984 68.2073C45.9318 66.674 47.6318 65.474 49.6984 64.6073C51.7651 63.674 54.0318 63.2073 56.4984 63.2073Z" fill="white"/>
<path d="M76.132 65.5C77.8654 65.5 79.3654 66.1333 80.632 67.4C81.8987 68.6667 82.532 70.1667 82.532 71.9C82.532 73.6333 81.8987 75.1333 80.632 76.4C79.3654 77.6667 77.8654 78.3 76.132 78.3C74.3987 78.3 72.8987 77.6667 71.632 76.4C70.3654 75.1333 69.732 73.6333 69.732 71.9C69.732 70.1667 70.3654 68.6667 71.632 67.4C72.8987 66.1333 74.3987 65.5 76.132 65.5ZM81.332 89.4V132.7C81.332 135.5 81.8987 137.4 83.032 138.4C84.232 139.4 86.1987 139.9 88.932 139.9V142C87.7987 141.933 86.0654 141.867 83.732 141.8C81.4654 141.667 79.1654 141.6 76.832 141.6C74.5654 141.6 72.2654 141.667 69.932 141.8C67.5987 141.867 65.8654 141.933 64.732 142V139.9C67.4654 139.9 69.3987 139.4 70.532 138.4C71.732 137.4 72.332 135.5 72.332 132.7V101.4C72.332 98.4 71.7987 96.2 70.732 94.8C69.6654 93.3333 67.6654 92.6 64.732 92.6V90.5C66.8654 90.7 68.932 90.8 70.932 90.8C72.8654 90.8 74.6987 90.7 76.432 90.5C78.232 90.2333 79.8654 89.8667 81.332 89.4ZM109.929 63.6V132.7C109.929 135.5 110.496 137.4 111.629 138.4C112.829 139.4 114.796 139.9 117.529 139.9V142C116.396 141.933 114.662 141.867 112.329 141.8C110.062 141.667 107.762 141.6 105.429 141.6C103.162 141.6 100.862 141.667 98.5289 141.8C96.1956 141.867 94.4622 141.933 93.3289 142V139.9C96.0622 139.9 97.9956 139.4 99.1289 138.4C100.329 137.4 100.929 135.5 100.929 132.7V75.6C100.929 72.6 100.396 70.4 99.3289 69C98.2622 67.5333 96.2622 66.8 93.3289 66.8V64.7C95.4622 64.9 97.5289 65 99.5289 65C101.462 65 103.296 64.9 105.029 64.7C106.829 64.4333 108.462 64.0667 109.929 63.6ZM138.542 63.6V132.7C138.542 135.5 139.109 137.4 140.242 138.4C141.442 139.4 143.409 139.9 146.142 139.9V142C145.009 141.933 143.276 141.867 140.942 141.8C138.676 141.667 136.376 141.6 134.042 141.6C131.776 141.6 129.476 141.667 127.142 141.8C124.809 141.867 123.076 141.933 121.942 142V139.9C124.676 139.9 126.609 139.4 127.742 138.4C128.942 137.4 129.542 135.5 129.542 132.7V75.6C129.542 72.6 129.009 70.4 127.942 69C126.876 67.5333 124.876 66.8 121.942 66.8V64.7C124.076 64.9 126.142 65 128.142 65C130.076 65 131.909 64.9 133.642 64.7C135.442 64.4333 137.076 64.0667 138.542 63.6ZM241.077 63.6V132.7C241.077 135.5 241.577 137.4 242.577 138.4C243.577 139.4 245.277 139.9 247.677 139.9V142C246.61 141.933 245.01 141.867 242.877 141.8C240.81 141.667 238.71 141.6 236.577 141.6C234.31 141.6 232.01 141.667 229.677 141.8C227.343 141.867 225.61 141.933 224.477 142V139.9C227.21 139.9 229.143 139.4 230.277 138.4C231.477 137.4 232.077 135.5 232.077 132.7V75.6C232.077 72.6 231.543 70.4 230.477 69C229.41 67.5333 227.41 66.8 224.477 66.8V64.7C226.61 64.9 228.677 65 230.677 65C232.61 65 234.443 64.9 236.177 64.7C237.977 64.4333 239.61 64.0667 241.077 63.6ZM272.877 90.5V92.5C271.21 92.6333 269.643 93.1 268.177 93.9C266.71 94.6333 265.277 95.7333 263.877 97.2L249.777 112L251.177 109.2L269.777 134.7C270.91 136.233 271.977 137.433 272.977 138.3C274.043 139.167 275.31 139.7 276.777 139.9V142C276.043 141.933 274.877 141.867 273.277 141.8C271.743 141.667 270.21 141.6 268.677 141.6C266.61 141.6 264.51 141.667 262.377 141.8C260.243 141.867 258.643 141.933 257.577 142V139.9C258.91 139.9 259.843 139.567 260.377 138.9C260.91 138.233 260.81 137.433 260.077 136.5L248.577 119.7C247.31 117.9 246.143 116.733 245.077 116.2C244.077 115.667 242.61 115.367 240.677 115.3V113.3C242.81 113.033 244.543 112.6 245.877 112C247.21 111.333 248.477 110.367 249.677 109.1L257.077 101.4C259.21 99.2 260.277 97.4667 260.277 96.2C260.277 94.8667 259.577 93.9333 258.177 93.4C256.843 92.8 255.077 92.5 252.877 92.5V90.5C254.61 90.5667 256.543 90.6667 258.677 90.8C260.877 90.8667 262.71 90.9 264.177 90.9C265.31 90.9 266.41 90.9 267.477 90.9C268.543 90.8333 269.543 90.7667 270.477 90.7C271.41 90.6333 272.21 90.5667 272.877 90.5ZM293.58 142.7C290.847 142.7 288.48 142.2 286.48 141.2C284.48 140.133 282.947 138.667 281.88 136.8C280.88 134.933 280.38 132.767 280.38 130.3C280.38 127.367 281.047 124.967 282.38 123.1C283.78 121.233 285.547 119.733 287.68 118.6C289.814 117.467 292.047 116.533 294.38 115.8C296.78 115 299.047 114.267 301.18 113.6C303.314 112.867 305.047 112.033 306.38 111.1C307.78 110.167 308.48 108.933 308.48 107.4V101.2C308.48 98.4 308.047 96.2667 307.18 94.8C306.38 93.3333 305.28 92.3667 303.88 91.9C302.48 91.3667 300.914 91.1 299.18 91.1C297.514 91.1 295.714 91.3333 293.78 91.8C291.914 92.2667 290.414 93.2333 289.28 94.7C290.547 94.9667 291.647 95.6333 292.58 96.7C293.514 97.7667 293.98 99.1333 293.98 100.8C293.98 102.467 293.447 103.8 292.38 104.8C291.314 105.733 289.947 106.2 288.28 106.2C286.347 106.2 284.914 105.6 283.98 104.4C283.114 103.133 282.68 101.733 282.68 100.2C282.68 98.4667 283.114 97.0667 283.98 96C284.847 94.9333 285.947 93.9333 287.28 93C288.814 91.9333 290.78 91.0333 293.18 90.3C295.647 89.5 298.414 89.1 301.48 89.1C304.214 89.1 306.547 89.4333 308.48 90.1C310.414 90.7 312.014 91.6 313.28 92.8C315.014 94.4 316.147 96.3667 316.68 98.7C317.214 100.967 317.48 103.7 317.48 106.9V134.7C317.48 136.367 317.714 137.567 318.18 138.3C318.714 139.033 319.514 139.4 320.58 139.4C321.314 139.4 322.014 139.233 322.68 138.9C323.347 138.567 324.147 138.033 325.08 137.3L326.18 139C324.78 140.067 323.447 140.967 322.18 141.7C320.914 142.367 319.214 142.7 317.08 142.7C315.147 142.7 313.547 142.367 312.28 141.7C311.014 141.033 310.047 140.067 309.38 138.8C308.78 137.467 308.48 135.8 308.48 133.8C306.68 136.8 304.514 139.033 301.98 140.5C299.514 141.967 296.714 142.7 293.58 142.7ZM297.18 138.7C299.38 138.7 301.414 138.067 303.28 136.8C305.214 135.533 306.947 133.633 308.48 131.1V111.5C307.68 112.633 306.514 113.6 304.98 114.4C303.447 115.133 301.78 115.9 299.98 116.7C298.18 117.433 296.447 118.333 294.78 119.4C293.18 120.4 291.847 121.733 290.78 123.4C289.714 125.067 289.18 127.233 289.18 129.9C289.18 132.567 289.88 134.7 291.28 136.3C292.747 137.9 294.714 138.7 297.18 138.7ZM360.285 89.1C362.085 89.1 363.652 89.4667 364.985 90.2C366.385 90.9333 367.452 91.9 368.185 93.1C368.985 94.2333 369.385 95.5333 369.385 97C369.385 98.6667 368.852 100.133 367.785 101.4C366.785 102.667 365.418 103.3 363.685 103.3C362.285 103.3 361.052 102.867 359.985 102C358.918 101.067 358.385 99.7667 358.385 98.1C358.385 96.8333 358.718 95.7667 359.385 94.9C360.118 93.9667 360.918 93.2333 361.785 92.7C361.318 92.0333 360.618 91.7 359.685 91.7C357.618 91.7 355.718 92.3333 353.985 93.6C352.252 94.8 350.785 96.3667 349.585 98.3C348.385 100.233 347.452 102.3 346.785 104.5C346.118 106.633 345.785 108.633 345.785 110.5V131.7C345.785 134.967 346.718 137.167 348.585 138.3C350.518 139.367 353.118 139.9 356.385 139.9V142C354.852 141.933 352.685 141.867 349.885 141.8C347.085 141.667 344.118 141.6 340.985 141.6C338.718 141.6 336.452 141.667 334.185 141.8C331.985 141.867 330.318 141.933 329.185 142V139.9C331.918 139.9 333.852 139.4 334.985 138.4C336.185 137.4 336.785 135.5 336.785 132.7V101.4C336.785 98.4 336.252 96.2 335.185 94.8C334.118 93.3333 332.118 92.6 329.185 92.6V90.5C331.318 90.7 333.385 90.8 335.385 90.8C337.318 90.8 339.152 90.7 340.885 90.5C342.685 90.2333 344.318 89.8667 345.785 89.4V101.9C346.518 99.9667 347.552 98.0333 348.885 96.1C350.285 94.1 351.952 92.4333 353.885 91.1C355.818 89.7667 357.952 89.1 360.285 89.1ZM389.816 73.9V90.6H404.616V92.6H389.816V131.3C389.816 134.433 390.383 136.633 391.516 137.9C392.65 139.167 394.216 139.8 396.216 139.8C398.216 139.8 399.95 139 401.416 137.4C402.883 135.733 404.15 132.967 405.216 129.1L407.216 129.6C406.55 133.467 405.216 136.733 403.216 139.4C401.283 142.067 398.283 143.4 394.216 143.4C391.95 143.4 390.083 143.1 388.616 142.5C387.15 141.967 385.85 141.167 384.716 140.1C383.25 138.567 382.216 136.733 381.616 134.6C381.083 132.467 380.816 129.633 380.816 126.1V92.6H371.216V90.6H380.816V75.3C382.483 75.2333 384.083 75.1 385.616 74.9C387.15 74.7 388.55 74.3667 389.816 73.9Z" fill="white"/>
<path d="M185.455 69.8C191.789 69.8 197.322 71.2333 202.055 74.1C206.855 76.9667 210.555 81.1 213.155 86.5C215.822 91.8333 217.155 98.3333 217.155 106C217.155 113.467 215.789 120 213.055 125.6C210.389 131.2 206.655 135.567 201.855 138.7C197.055 141.833 191.555 143.4 185.355 143.4C179.022 143.4 173.455 141.967 168.655 139.1C163.922 136.233 160.222 132.1 157.555 126.7C154.955 121.3 153.655 114.8 153.655 107.2C153.655 99.7333 155.022 93.2 157.755 87.6C160.489 82 164.222 77.6333 168.955 74.5C173.755 71.3667 179.255 69.8 185.455 69.8ZM185.055 71.6C180.722 71.6 176.955 73.1 173.755 76.1C170.555 79.1 168.055 83.2333 166.255 88.5C164.522 93.7667 163.655 99.8667 163.655 106.8C163.655 113.867 164.622 120.033 166.555 125.3C168.555 130.5 171.222 134.533 174.555 137.4C177.955 140.2 181.689 141.6 185.755 141.6C190.089 141.6 193.855 140.1 197.055 137.1C200.255 134.1 202.722 129.967 204.455 124.7C206.255 119.367 207.155 113.267 207.155 106.4C207.155 99.2667 206.155 93.1 204.155 87.9C202.222 82.7 199.589 78.7 196.255 75.9C192.922 73.0333 189.189 71.6 185.055 71.6Z" fill="#58BA47"/>
<path d="M170.913 186.184H186.273V189.16H180.065V209.32H176.961V189.16H170.913V186.184ZM190.467 209.32V184.552H193.379V199.144L193.315 198.6C193.763 197.726 194.446 197 195.363 196.424C196.302 195.848 197.4 195.56 198.659 195.56C199.918 195.56 200.942 195.934 201.731 196.68C202.542 197.406 202.958 198.355 202.979 199.528V209.32H199.971V200.584C199.95 199.859 199.736 199.272 199.331 198.824C198.947 198.355 198.339 198.12 197.507 198.12C196.739 198.12 196.046 198.344 195.427 198.792C194.808 199.219 194.318 199.806 193.955 200.552C193.614 201.299 193.443 202.152 193.443 203.112V209.32H190.467ZM214.299 209.64C212.784 209.64 211.483 209.342 210.395 208.744C209.307 208.126 208.464 207.294 207.867 206.248C207.291 205.182 207.003 203.966 207.003 202.6C207.003 201.299 207.333 200.115 207.995 199.048C208.656 197.982 209.541 197.128 210.651 196.488C211.76 195.848 212.997 195.528 214.363 195.528C216.112 195.528 217.563 196.04 218.715 197.064C219.867 198.088 220.645 199.496 221.051 201.288L210.139 205.128L209.435 203.368L218.395 200.104L217.755 200.52C217.499 199.816 217.072 199.208 216.475 198.696C215.877 198.163 215.099 197.896 214.139 197.896C213.328 197.896 212.603 198.099 211.963 198.504C211.323 198.888 210.821 199.422 210.459 200.104C210.096 200.787 209.915 201.566 209.915 202.44C209.915 203.358 210.107 204.168 210.491 204.872C210.875 205.555 211.397 206.099 212.059 206.504C212.741 206.888 213.509 207.08 214.363 207.08C214.939 207.08 215.493 206.974 216.027 206.76C216.581 206.547 217.093 206.27 217.563 205.928L218.939 208.136C218.277 208.584 217.531 208.947 216.699 209.224C215.888 209.502 215.088 209.64 214.299 209.64ZM233.625 186.312H237.209L243.481 203.976L242.937 203.752L247.513 191.912L248.953 196.104L242.841 210.376L233.625 186.312ZM244.729 186.312H247.833L254.617 203.72L253.977 203.592L259.961 186.312H263.257L254.169 210.344L244.729 186.312ZM266.717 196.072H269.693V209.32H266.717V196.072ZM266.493 191.272C266.493 190.803 266.674 190.408 267.037 190.088C267.421 189.768 267.837 189.608 268.285 189.608C268.733 189.608 269.128 189.768 269.469 190.088C269.832 190.408 270.013 190.803 270.013 191.272C270.013 191.763 269.832 192.168 269.469 192.488C269.128 192.787 268.733 192.936 268.285 192.936C267.837 192.936 267.421 192.776 267.037 192.456C266.674 192.136 266.493 191.742 266.493 191.272ZM278.554 209.576C277.615 209.576 276.698 209.416 275.802 209.096C274.927 208.755 274.202 208.254 273.626 207.592L274.874 205.864C275.429 206.398 275.994 206.803 276.57 207.08C277.167 207.336 277.754 207.464 278.33 207.464C278.757 207.464 279.151 207.411 279.514 207.304C279.877 207.198 280.165 207.027 280.378 206.792C280.613 206.536 280.73 206.195 280.73 205.768C280.73 205.299 280.57 204.926 280.25 204.648C279.951 204.371 279.557 204.147 279.066 203.976C278.597 203.806 278.095 203.646 277.562 203.496C276.474 203.134 275.642 202.632 275.066 201.992C274.49 201.352 274.202 200.574 274.202 199.656C274.202 198.952 274.373 198.302 274.714 197.704C275.077 197.086 275.599 196.584 276.282 196.2C276.986 195.816 277.85 195.624 278.874 195.624C279.791 195.624 280.613 195.742 281.338 195.976C282.063 196.19 282.746 196.552 283.386 197.064L282.202 198.92C281.818 198.515 281.359 198.216 280.826 198.024C280.293 197.832 279.813 197.726 279.386 197.704C279.023 197.683 278.671 197.736 278.33 197.864C278.01 197.992 277.743 198.174 277.53 198.408C277.317 198.643 277.21 198.92 277.21 199.24C277.21 199.688 277.359 200.051 277.658 200.328C277.957 200.606 278.341 200.83 278.81 201C279.301 201.15 279.781 201.31 280.25 201.48C280.911 201.672 281.498 201.928 282.01 202.248C282.522 202.568 282.927 202.963 283.226 203.432C283.546 203.902 283.706 204.488 283.706 205.192C283.706 205.982 283.514 206.718 283.13 207.4C282.767 208.062 282.202 208.595 281.434 209C280.687 209.384 279.727 209.576 278.554 209.576ZM294.017 209.64C292.503 209.64 291.201 209.342 290.113 208.744C289.025 208.126 288.183 207.294 287.585 206.248C287.009 205.182 286.721 203.966 286.721 202.6C286.721 201.299 287.052 200.115 287.713 199.048C288.375 197.982 289.26 197.128 290.369 196.488C291.479 195.848 292.716 195.528 294.081 195.528C295.831 195.528 297.281 196.04 298.433 197.064C299.585 198.088 300.364 199.496 300.769 201.288L289.857 205.128L289.153 203.368L298.113 200.104L297.473 200.52C297.217 199.816 296.791 199.208 296.193 198.696C295.596 198.163 294.817 197.896 293.857 197.896C293.047 197.896 292.321 198.099 291.681 198.504C291.041 198.888 290.54 199.422 290.177 200.104C289.815 200.787 289.633 201.566 289.633 202.44C289.633 203.358 289.825 204.168 290.209 204.872C290.593 205.555 291.116 206.099 291.777 206.504C292.46 206.888 293.228 207.08 294.081 207.08C294.657 207.08 295.212 206.974 295.745 206.76C296.3 206.547 296.812 206.27 297.281 205.928L298.657 208.136C297.996 208.584 297.249 208.947 296.417 209.224C295.607 209.502 294.807 209.64 294.017 209.64ZM332.351 207.592C331.967 207.848 331.445 208.136 330.783 208.456C330.122 208.776 329.343 209.043 328.447 209.256C327.573 209.47 326.613 209.576 325.567 209.576C323.775 209.555 322.154 209.235 320.703 208.616C319.274 207.998 318.058 207.155 317.055 206.088C316.053 205.022 315.274 203.795 314.719 202.408C314.186 201 313.919 199.507 313.919 197.928C313.919 196.2 314.197 194.611 314.751 193.16C315.327 191.688 316.127 190.419 317.151 189.352C318.175 188.264 319.381 187.422 320.767 186.824C322.175 186.227 323.711 185.928 325.375 185.928C326.762 185.928 328.021 186.12 329.151 186.504C330.282 186.867 331.253 187.304 332.063 187.816L330.815 190.696C330.175 190.27 329.397 189.864 328.479 189.48C327.583 189.096 326.581 188.904 325.471 188.904C324.341 188.904 323.274 189.128 322.271 189.576C321.269 190.024 320.383 190.654 319.615 191.464C318.847 192.275 318.239 193.224 317.791 194.312C317.365 195.379 317.151 196.531 317.151 197.768C317.151 199.027 317.343 200.2 317.727 201.288C318.133 202.355 318.698 203.283 319.423 204.072C320.17 204.862 321.066 205.48 322.111 205.928C323.157 206.376 324.33 206.6 325.631 206.6C326.805 206.6 327.85 206.419 328.767 206.056C329.685 205.694 330.442 205.288 331.039 204.84L332.351 207.592ZM336.842 209.32V184.552H339.754V199.144L339.69 198.6C340.138 197.726 340.821 197 341.738 196.424C342.677 195.848 343.775 195.56 345.034 195.56C346.293 195.56 347.317 195.934 348.106 196.68C348.917 197.406 349.333 198.355 349.354 199.528V209.32H346.346V200.584C346.325 199.859 346.111 199.272 345.706 198.824C345.322 198.355 344.714 198.12 343.882 198.12C343.114 198.12 342.421 198.344 341.802 198.792C341.183 199.219 340.693 199.806 340.33 200.552C339.989 201.299 339.818 202.152 339.818 203.112V209.32H336.842ZM353.378 202.568C353.378 201.246 353.687 200.051 354.306 198.984C354.946 197.918 355.82 197.075 356.93 196.456C358.039 195.838 359.298 195.528 360.706 195.528C362.156 195.528 363.426 195.838 364.514 196.456C365.602 197.075 366.444 197.918 367.042 198.984C367.639 200.051 367.938 201.246 367.938 202.568C367.938 203.891 367.639 205.096 367.042 206.184C366.444 207.251 365.591 208.094 364.482 208.712C363.394 209.331 362.124 209.64 360.674 209.64C359.266 209.64 358.007 209.352 356.898 208.776C355.81 208.179 354.946 207.358 354.306 206.312C353.687 205.246 353.378 203.998 353.378 202.568ZM356.354 202.6C356.354 203.454 356.546 204.232 356.93 204.936C357.314 205.619 357.826 206.163 358.466 206.568C359.127 206.974 359.852 207.176 360.642 207.176C361.474 207.176 362.21 206.974 362.85 206.568C363.511 206.163 364.023 205.619 364.386 204.936C364.748 204.232 364.93 203.454 364.93 202.6C364.93 201.747 364.748 200.979 364.386 200.296C364.023 199.592 363.511 199.038 362.85 198.632C362.21 198.206 361.474 197.992 360.642 197.992C359.831 197.992 359.095 198.206 358.434 198.632C357.794 199.059 357.282 199.624 356.898 200.328C356.535 201.011 356.354 201.768 356.354 202.6ZM371.967 196.072H374.943V209.32H371.967V196.072ZM371.743 191.272C371.743 190.803 371.924 190.408 372.287 190.088C372.671 189.768 373.087 189.608 373.535 189.608C373.983 189.608 374.378 189.768 374.719 190.088C375.082 190.408 375.263 190.803 375.263 191.272C375.263 191.763 375.082 192.168 374.719 192.488C374.378 192.787 373.983 192.936 373.535 192.936C373.087 192.936 372.671 192.776 372.287 192.456C371.924 192.136 371.743 191.742 371.743 191.272ZM390.844 208.104C390.247 208.574 389.532 208.947 388.7 209.224C387.868 209.502 387.036 209.64 386.204 209.64C384.753 209.64 383.484 209.352 382.396 208.776C381.308 208.2 380.455 207.4 379.836 206.376C379.239 205.331 378.94 204.104 378.94 202.696C378.94 201.288 379.26 200.062 379.9 199.016C380.561 197.971 381.415 197.171 382.46 196.616C383.527 196.04 384.668 195.752 385.884 195.752C386.951 195.752 387.9 195.902 388.732 196.2C389.585 196.499 390.311 196.904 390.908 197.416L389.436 199.336C389.052 199.038 388.583 198.771 388.028 198.536C387.473 198.302 386.844 198.184 386.14 198.184C385.372 198.184 384.657 198.387 383.996 198.792C383.356 199.176 382.844 199.71 382.46 200.392C382.097 201.075 381.916 201.843 381.916 202.696C381.916 203.507 382.108 204.264 382.492 204.968C382.876 205.651 383.409 206.195 384.092 206.6C384.775 206.984 385.553 207.176 386.428 207.176C387.004 207.176 387.527 207.091 387.996 206.92C388.487 206.75 388.924 206.515 389.308 206.216L390.844 208.104ZM400.83 209.64C399.315 209.64 398.014 209.342 396.926 208.744C395.838 208.126 394.995 207.294 394.398 206.248C393.822 205.182 393.534 203.966 393.534 202.6C393.534 201.299 393.864 200.115 394.526 199.048C395.187 197.982 396.072 197.128 397.182 196.488C398.291 195.848 399.528 195.528 400.894 195.528C402.643 195.528 404.094 196.04 405.246 197.064C406.398 198.088 407.176 199.496 407.582 201.288L396.67 205.128L395.966 203.368L404.926 200.104L404.286 200.52C404.03 199.816 403.603 199.208 403.006 198.696C402.408 198.163 401.63 197.896 400.67 197.896C399.859 197.896 399.134 198.099 398.494 198.504C397.854 198.888 397.352 199.422 396.99 200.104C396.627 200.787 396.446 201.566 396.446 202.44C396.446 203.358 396.638 204.168 397.022 204.872C397.406 205.555 397.928 206.099 398.59 206.504C399.272 206.888 400.04 207.08 400.894 207.08C401.47 207.08 402.024 206.974 402.558 206.76C403.112 206.547 403.624 206.27 404.094 205.928L405.47 208.136C404.808 208.584 404.062 208.947 403.23 209.224C402.419 209.502 401.619 209.64 400.83 209.64Z" fill="#58BA47"/>
</svg>
